<?xml version="1.0" encoding="UTF-8" standalone="no"?><!-- Generator: Gravit.io --><svg xmlns="http://www.w3.org/2000/svg" xmlns:xlink="http://www.w3.org/1999/xlink" style="isolation:isolate" viewBox="-15 416.237 378 226.763" width="378pt" height="226.763pt"><g><g><path d=" M 243.429 594.351 Q 232.254 592.601 221.939 591.374 L 224.587 586.078 C 223.668 585.772 219.685 588.836 219.685 588.836 L 223.055 573.517 C 218.459 574.13 216.315 589.755 216.315 589.755 L 211.106 584.546 L 213.67 590.443 C 192.628 588.232 174.47 587.542 159.207 587.701 L 161.473 583.168 C 160.554 582.861 156.571 585.925 156.571 585.925 L 159.941 570.606 C 155.345 571.219 153.201 586.844 153.201 586.844 L 147.992 581.636 L 150.708 587.882 C 140.253 588.185 129.82 589.026 119.45 590.399 C 121.712 583.353 129.61 576.581 129.61 576.581 C 123.537 578.47 120.378 581.548 118.743 584.401 C 118.412 569.926 120.639 555.507 125.32 541.807 C 125.32 541.807 113.065 569.381 114.903 587.763 L 115.137 591.029 C 104.475 592.692 99.125 594.351 99.125 594.351 L 243.429 594.351 Z " fill="rgb(63,61,86)"/><path d=" M 300.875 593.868 L 294.827 593.868 L 294.827 587.82 L 300.875 587.82 L 300.875 593.868 Z  M 295.292 593.403 L 300.41 593.403 L 300.41 588.285 L 295.292 588.285 L 295.292 593.403 Z " fill="rgb(63,61,86)"/><path d=" M 216.001 457.219 L 216.001 477.342 C 216 477.729 215.686 478.042 215.299 478.043 L 214.8 478.043 L 214.8 582.87 C 214.799 588.911 209.902 593.808 203.862 593.808 L 138.361 593.808 C 135.461 593.808 132.679 592.655 130.629 590.604 C 128.578 588.553 127.426 585.771 127.427 582.87 L 127.427 481.72 L 127.065 481.72 C 126.792 481.72 126.57 481.499 126.569 481.226 L 126.569 469.774 C 126.569 469.642 126.621 469.516 126.714 469.423 C 126.807 469.33 126.934 469.278 127.065 469.278 L 127.427 469.278 L 127.427 464.964 L 127.062 464.964 C 126.775 464.963 126.544 464.73 126.544 464.443 L 126.544 453.147 C 126.545 452.861 126.776 452.63 127.062 452.629 L 127.427 452.629 L 127.427 446.74 L 127.056 446.74 C 126.934 446.741 126.817 446.692 126.731 446.606 C 126.645 446.52 126.596 446.403 126.596 446.281 L 126.596 440.117 C 126.596 439.862 126.801 439.655 127.056 439.654 L 127.427 439.654 L 127.427 427.172 C 127.427 421.133 132.322 416.238 138.361 416.237 L 203.862 416.237 C 209.901 416.237 214.798 421.133 214.8 427.172 L 214.8 456.517 L 215.299 456.517 C 215.686 456.518 216 456.832 216.001 457.219 L 216.001 457.219 Z " fill="rgb(75,75,75)"/><path d="M 163.624 421.846 L 174.267 421.846 C 174.697 421.846 175.046 422.195 175.046 422.625 L 175.046 423.545 C 175.046 423.975 174.697 424.324 174.267 424.324 L 163.624 424.324 C 163.194 424.324 162.845 423.975 162.845 423.545 L 162.845 422.625 C 162.845 422.195 163.194 421.846 163.624 421.846 Z" style="stroke:none;fill:#E6E8EC;stroke-miterlimit:10;"/><circle vector-effect="non-scaling-stroke" cx="178.29619150341642" cy="423.085011569813" r="1.405249259681085" fill="rgb(230,232,236)"/><path d=" M 209.562 429.335 L 209.562 583.777 C 209.564 585.81 208.672 587.74 207.123 589.056 C 205.868 590.126 204.272 590.714 202.623 590.714 L 139.922 590.714 C 138.807 590.716 137.707 590.448 136.718 589.933 C 136.485 589.814 136.26 589.681 136.044 589.534 C 134.13 588.243 132.983 586.086 132.983 583.777 L 132.983 429.335 C 132.983 427.495 133.714 425.73 135.015 424.428 C 136.317 423.127 138.082 422.396 139.922 422.396 L 149.307 422.396 L 149.307 423.6 C 149.307 426.756 151.865 429.314 155.021 429.314 L 186.908 429.314 C 190.064 429.314 192.622 426.756 192.622 423.6 L 192.622 422.396 L 202.623 422.396 C 204.463 422.395 206.229 423.126 207.53 424.428 C 208.832 425.729 209.563 427.495 209.562 429.335 Z " fill="rgb(252,66,123)"/><g opacity="0.3"><path d=" M 209.562 561.669 L 209.562 583.777 C 209.564 585.81 208.672 587.74 207.123 589.056 C 205.868 590.126 204.272 590.714 202.623 590.714 L 139.922 590.714 C 138.807 590.716 137.707 590.448 136.718 589.933 C 136.485 589.814 136.26 589.681 136.044 589.534 C 134.13 588.243 132.983 586.086 132.983 583.777 L 132.983 561.678 C 154.756 542.106 187.784 542.102 209.562 561.669 L 209.562 561.669 Z " fill="rgb(252,66,123)"/></g><g opacity="0.3"><path d=" M 205.833 589.926 C 204.843 590.447 203.741 590.717 202.623 590.714 L 139.922 590.714 C 138.807 590.716 137.707 590.448 136.718 589.933 C 142.522 575.973 156.155 566.876 171.273 566.875 C 186.392 566.873 200.027 575.968 205.833 589.926 L 205.833 589.926 Z " fill="rgb(252,66,123)"/></g><g opacity="0.3"><path d=" M 192.187 590.297 C 191.588 590.612 190.921 590.775 190.244 590.774 L 152.303 590.774 C 151.628 590.775 150.963 590.612 150.364 590.301 C 153.876 581.853 162.126 576.349 171.274 576.348 C 180.423 576.347 188.673 581.85 192.187 590.297 Z " fill="rgb(252,66,123)"/></g><path d=" M 187.223 482.185 C 180.933 482.185 174.031 480.988 168.642 476.946 C 161.14 471.32 151.897 471.62 145.464 472.863 C 141.191 473.696 137.043 475.077 133.124 476.973 L 132.841 476.43 C 136.808 474.509 141.006 473.109 145.331 472.264 C 151.891 470.995 161.323 470.692 169.01 476.456 C 183.41 487.256 209.194 477.556 209.452 477.457 L 209.672 478.029 C 204.837 479.753 199.836 480.97 194.749 481.662 C 192.255 482.003 189.74 482.177 187.223 482.185 Z " fill="rgb(255,255,255)"/><g opacity="0.3"><path d=" M 132.98 476.701 C 132.98 476.701 154.12 471.581 168.826 478.592 C 168.826 478.592 209.574 478.54 209.574 478.54" fill="rgb(255,255,255)"/></g><g opacity="0.3"><path d=" M 152.938 484.655 C 150.384 484.644 147.837 484.389 145.331 483.896 C 141.006 483.051 136.808 481.651 132.841 479.73 L 133.124 479.187 C 137.043 481.083 141.191 482.465 145.464 483.297 C 151.896 484.54 161.14 484.84 168.642 479.214 C 176.322 473.454 187.079 473.47 194.749 474.498 C 199.836 475.19 204.837 476.407 209.672 478.131 L 209.452 478.703 C 209.193 478.603 183.41 468.904 169.01 479.704 C 163.969 483.484 158.177 484.655 152.938 484.655 Z " fill="rgb(255,255,255)"/></g><g opacity="0.3"><path d=" M 153.042 482.188 C 142.431 482.188 133.007 478.381 132.866 478.323 L 133.099 477.756 C 133.309 477.843 154.267 486.304 168.67 477.776 C 183.322 469.1 209.389 476.844 209.651 476.924 L 209.473 477.51 C 209.214 477.432 183.403 469.764 168.982 478.303 C 164.061 481.217 158.4 482.188 153.042 482.188 Z " fill="rgb(255,255,255)"/></g><g opacity="0.3"><path d=" M 132.983 477.568 C 132.983 477.568 154.12 484.579 168.826 477.568 C 168.826 477.568 209.562 476.906 209.562 476.906" fill="rgb(255,255,255)"/></g><path d=" M 215.018 496.325 L 215.018 505.256 C 215.018 505.256 215.733 515.26 219.663 520.262 C 219.663 520.262 226.094 529.372 226.987 527.407 L 225.887 520.938 L 222.164 517.404 L 220.199 506.328 L 219.663 496.325 L 215.018 496.325 Z " fill="rgb(255,184,184)"/><path d=" M 254.497 577.068 L 254.497 583.677 L 249.138 585.643 L 249.138 577.961 L 254.497 577.068 L 254.497 577.068 Z " fill="rgb(255,184,184)"/><path d=" M 243.6 576.353 L 247.173 584.392 L 242.171 586.536 L 241.099 578.676 L 243.6 576.353 L 243.6 576.353 Z " fill="rgb(255,184,184)"/><path d=" M 252.532 514.724 C 252.532 514.724 259.677 579.212 256.998 579.39 C 256.998 579.39 249.138 582.963 249.138 580.641 C 249.138 578.318 245.029 548.129 245.029 548.129 L 241.099 532.588 L 241.099 554.024 L 245.208 578.318 C 245.208 578.318 241.278 583.499 238.42 580.462 L 232.346 556.704 C 232.346 556.704 224.307 520.619 224.665 517.761 C 224.665 517.761 243.064 502.041 252.532 514.724 Z " fill="rgb(75,75,75)"/><path d=" M 251.103 584.035 C 251.103 584.035 252.532 580.998 255.747 582.963 L 258.427 586.178 C 258.427 586.178 265.335 591.9 260.433 593.125 C 255.381 594.388 252.353 593.044 252.353 593.044 C 252.353 593.044 251.46 592.508 250.746 592.508 C 250.031 592.508 248.423 591.258 248.423 590.901 C 248.423 590.543 248.959 584.213 248.959 584.213 C 249.373 584.012 249.869 584.082 250.21 584.392 C 250.746 584.928 251.103 584.035 251.103 584.035 Z " fill="rgb(47,46,65)"/><path d=" M 240.563 582.963 C 240.563 582.963 243.957 580.283 245.565 583.32 C 245.565 583.32 246.577 583.677 246.696 583.32 C 246.816 582.963 247.709 582.784 247.709 584.749 C 247.709 586.714 248.679 591.615 247.786 591.794 C 246.892 591.973 245.999 592.508 246.178 593.223 C 246.356 593.938 245.208 594.038 241.099 593.86 C 236.991 593.681 236.812 592.073 236.812 592.073 C 236.812 592.073 236.812 589.751 237.884 588.501 C 238.956 587.25 240.563 582.963 240.563 582.963 Z " fill="rgb(47,46,65)"/><path d=" M 233.954 465.957 C 233.954 465.957 233.061 472.566 238.777 474.888 C 238.777 474.888 226.094 484.892 224.307 480.426 C 224.307 480.426 224.665 474.531 224.665 474.531 C 224.665 474.531 226.451 472.745 224.843 467.922 L 233.954 465.957 Z " fill="rgb(255,184,184)"/><circle vector-effect="non-scaling-stroke" cx="228.2374202050113" cy="462.7412121620682" r="7.859962471526188" fill="rgb(255,184,184)"/><path d=" M 237.348 477.032 C 237.348 477.032 231.989 479.89 226.808 477.747 C 226.808 477.747 221.807 484.892 221.807 484.892 L 224.486 491.859 L 243.064 490.072 L 241.814 479.354 L 237.348 477.032 Z " fill="rgb(242,242,242)"/><path d=" M 234.685 470.92 C 236.613 471.329 238.25 472.592 239.134 474.353 L 247.709 477.032 L 249.852 480.069 L 247.351 502.041 C 247.351 502.041 251.996 506.507 251.996 509.008 C 251.996 509.008 257.712 520.083 254.854 519.011 C 254.854 519.011 246.816 514.188 246.816 514.188 C 246.816 514.188 233.775 514.724 229.667 518.297 C 229.667 518.297 223.95 520.798 223.95 520.798 C 223.95 520.798 219.663 502.22 219.484 499.361 C 219.484 499.361 214.304 479.354 214.304 479.354 L 223.236 474.353 L 225.511 471.771 L 231.81 481.855 L 237.526 474.888 C 237.526 474.888 234.702 472.667 234.685 470.92 Z " fill="rgb(165,25,109)"/><path d=" M 252.532 493.824 L 253.604 499.54 C 253.604 499.54 258.427 517.404 257.712 523.477 C 257.712 523.477 258.248 537.054 255.211 535.446 C 252.175 533.838 253.782 524.013 253.782 524.013 L 249.495 506.328 L 247.173 495.967 L 252.532 493.824 Z " fill="rgb(255,184,184)"/><path d=" M 248.066 478.997 L 249.852 480.069 C 249.852 480.069 256.64 494.181 255.033 495.253 C 253.425 496.325 246.458 498.647 246.458 498.647 L 248.066 478.997 Z " fill="rgb(165,25,109)"/><path d=" M 218.591 479.354 L 214.393 479.265 L 213.411 480.962 L 214.661 498.29 L 221.092 499.719 L 218.591 479.354 L 218.591 479.354 Z " fill="rgb(165,25,109)"/><path d=" M 234.638 456.094 L 236.055 455.579 C 236.055 455.579 233.092 452.616 228.971 452.874 L 230.13 451.715 C 230.13 451.715 227.297 450.684 224.721 453.389 C 223.367 454.811 221.8 456.482 220.824 458.365 L 219.306 458.365 L 219.94 459.631 L 217.723 460.898 L 219.998 460.67 C 219.783 461.763 219.857 462.894 220.213 463.95 L 220.728 465.367 C 220.728 465.367 222.789 461.245 222.789 460.73 L 222.789 462.018 C 222.789 462.018 224.206 460.859 224.206 460.086 L 224.979 460.988 L 225.365 459.571 L 230.13 460.988 L 229.357 459.829 L 232.32 460.215 L 231.161 458.798 C 231.161 458.798 234.509 460.473 234.638 461.889 C 234.638 461.889 235.651 465.153 235.651 465.153 L 236.723 463.902 C 236.723 463.902 238.373 458.026 234.638 456.094 Z " fill="rgb(75,75,75)"/><ellipse vector-effect="non-scaling-stroke" cx="234.8469370956718" cy="462.83053057892414" rx="0.6252258542141362" ry="1.6077192482915734" fill="rgb(255,184,184)"/><g opacity="0.3"><path d=" M 132.983 476.701 C 132.983 476.701 154.12 465.672 168.826 476.701 C 168.826 476.701 209.562 477.744 209.562 477.744" fill="rgb(255,255,255)"/></g><circle vector-effect="non-scaling-stroke" cx="171.3536446469247" cy="585.5650802714067" r="3.3701594533029606" fill="rgb(255,255,255)"/></g><g><path d=" M 76.97 601.303 Q 145.779 574.401 228.08 574.401 Q 310.381 574.401 360.302 547.5 L 360.302 614.305 L 76.97 630.446 L 76.97 601.303 Z " fill="rgb(165,25,109)"/><path d=" M -15 640.758 Q 20.601 600.182 76.97 600.182 C 133.34 600.182 95.971 606.907 156.311 608.252 C 218.784 609.645 225.353 590.766 285.219 590.766 Q 345.084 590.766 363 594.129 L 363 643 L -15 640.758 Z " fill="rgb(252,66,123)"/></g></g></svg>