<?xml version="1.0" encoding="UTF-8" standalone="no"?><!-- Generator: Gravit.io --><svg xmlns="http://www.w3.org/2000/svg" xmlns:xlink="http://www.w3.org/1999/xlink" style="isolation:isolate" viewBox="0 0 730 730" width="730pt" height="730pt"><defs><clipPath id="_clipPath_V2LAYMbYWReA9ATH7gZFijGEePhS9MRz"><rect width="730" height="730"/></clipPath></defs><g clip-path="url(#_clipPath_V2LAYMbYWReA9ATH7gZFijGEePhS9MRz)"><g><path d="M 274.891 111.087 L 408.07 111.087 C 524.451 111.087 618.937 205.573 618.937 321.954 L 618.937 455.133 C 618.937 571.514 524.451 666 408.07 666 L 274.891 666 C 158.51 666 64.024 571.514 64.024 455.133 L 64.024 321.954 C 64.024 205.573 158.51 111.087 274.891 111.087 Z" style="stroke:none;fill:#F7F7F7;stroke-miterlimit:10;"/><g><g><g><path d=" M 274.976 729.384 L 508.976 729.384 Q 499.771 647.417 436.976 658.269 Q 374.181 669.121 274.976 729.384 Z " fill="rgb(255,153,0)"/><path d=" M 300.256 714.771 L 506.399 714.771 Q 508.68 724.955 508.976 729.384 L 274.976 729.384 L 300.256 714.771 Z " fill="rgb(230,141,9)"/></g><path d="M 186.663 255.384 L 212.355 255.384 C 245.261 255.384 271.976 282.099 271.976 315.005 L 271.976 666.538 C 271.976 701.223 243.815 729.384 209.13 729.384 L 186.663 729.384 L 186.663 255.384 Z" style="stroke:none;fill:#FC427B;stroke-miterlimit:10;"/><path d="M 267.089 301.384 L 342.976 301.384 L 342.976 616.525 C 342.976 645.323 319.596 668.703 290.798 668.703 L 276.989 668.703 C 271.525 668.703 267.089 664.267 267.089 658.803 L 267.089 301.384 Z" style="stroke:none;fill:#FC427B;stroke-miterlimit:10;"/><path d="M 368.61 322.703 L 368.61 322.703 C 417.76 322.703 457.663 374.551 457.663 438.414 L 457.663 507.673 C 457.663 571.536 417.76 623.384 368.61 623.384 L 368.61 623.384 L 368.61 322.703 Z" style="stroke:none;fill:#B53471;stroke-miterlimit:10;"/></g><g><path d=" M 232.604 88 C 217.13 112.515 208.038 142.408 208.038 174.655 C 208.038 257.791 268.468 325.288 342.901 325.288 C 417.334 325.288 477.764 257.791 477.764 174.655 C 477.764 142.408 468.672 112.515 453.199 88 L 232.604 88 L 232.604 88 Z " fill="rgb(244,244,244)"/><g><path d="M 405.976 83.384 L 554.337 83.384 C 615.946 83.384 665.964 133.402 665.964 195.011 L 665.964 196.703 L 405.976 196.703 L 405.976 83.384 Z" style="stroke:none;fill:#FF9900;stroke-miterlimit:10;"/><path d=" M 405.976 175.764 L 663.524 175.764 Q 666.165 186.541 665.961 196.703 L 406.788 196.703 Q 407.601 185.31 405.976 175.764 Z " fill="rgb(230,141,9)"/></g><path d="M 332.663 185.203 L 458.863 185.203 L 458.863 284.155 C 458.863 295.193 449.902 304.155 438.863 304.155 L 332.663 304.155 L 332.663 185.203 Z" style="stroke:none;fill:#B53471;stroke-miterlimit:10;"/><path d=" M 342.901 0.616 C 256.671 0.616 186.663 78.81 186.663 175.123 L 342.901 175.123 L 342.901 0.616 Z " fill="rgb(252,66,123)"/><ellipse vector-effect="non-scaling-stroke" cx="342.9011467862398" cy="174.65510130991962" rx="116.39028475711893" ry="130" fill="rgb(181,52,113)"/></g><g><g><path d=" M 412.548 193.055 C 416.837 186.452 439.477 115.287 358.689 86.6 C 277.901 57.912 304.83 252.504 358.689 222.088 C 412.548 191.673 408.258 199.659 412.548 193.055 Z " fill="rgb(255,255,255)"/><ellipse vector-effect="non-scaling-stroke" cx="365.28239319921005" cy="141.93283834456463" rx="26.061706146786094" ry="25.852111506986944" fill="rgb(0,0,0)"/></g></g></g></g></g></svg>