<?xml version="1.0" encoding="UTF-8" standalone="no"?><!-- Generator: Gravit.io --><svg xmlns="http://www.w3.org/2000/svg" xmlns:xlink="http://www.w3.org/1999/xlink" style="isolation:isolate" viewBox="0 6.957 1623.496 786.085" width="1623.496pt" height="786.085pt"><g><path d="M 227.452 86.906 L 371.105 86.906 C 496.639 86.906 598.557 188.824 598.557 314.358 L 598.557 458.011 C 598.557 583.545 496.639 685.463 371.105 685.463 L 227.452 685.463 C 101.918 685.463 0 583.545 0 458.011 L 0 314.358 C 0 188.824 101.918 86.906 227.452 86.906 Z" style="stroke:none;fill:#F7F7F7;stroke-miterlimit:10;"/><g><g><g><path d=" M 227.543 793.043 L 479.948 793.043 Q 470.019 704.629 402.285 716.334 Q 334.55 728.04 227.543 793.043 Z " fill="rgb(255,153,0)"/><path d=" M 272.296 767.043 L 474.296 767.043 Q 479.628 785.163 479.948 793.043 L 227.543 793.043 L 272.296 767.043 Z " fill="rgb(230,141,9)"/></g><path d="M 132.285 281.762 L 159.997 281.762 C 195.491 281.762 224.307 310.579 224.307 346.073 L 224.307 725.254 C 224.307 762.667 193.932 793.043 156.518 793.043 L 132.285 793.043 L 132.285 281.762 Z" style="stroke:none;fill:#FC427B;stroke-miterlimit:10;"/><path d="M 219.036 331.38 L 300.892 331.38 L 300.892 671.307 C 300.892 702.37 275.672 727.59 244.609 727.59 L 229.714 727.59 C 223.821 727.59 219.036 722.805 219.036 716.911 L 219.036 331.38 Z" style="stroke:none;fill:#FC427B;stroke-miterlimit:10;"/><path d="M 328.542 354.377 L 328.542 354.377 C 381.557 354.377 424.599 410.303 424.599 479.188 L 424.599 553.895 C 424.599 622.78 381.557 678.706 328.542 678.706 L 328.542 678.706 L 328.542 354.377 Z" style="stroke:none;fill:#B53471;stroke-miterlimit:10;"/></g><g><path d=" M 181.856 101.185 C 165.155 127.633 155.341 159.889 155.341 194.684 C 155.341 284.359 220.524 357.164 300.811 357.164 C 381.098 357.164 446.281 284.359 446.281 194.684 C 446.281 159.889 436.467 127.633 419.766 101.185 L 181.856 101.185 L 181.856 101.185 Z " fill="rgb(244,244,244)"/><g><path d="M 368.847 96.235 L 528.876 96.235 C 595.331 96.235 649.283 150.187 649.283 216.641 L 649.283 218.467 L 368.847 218.467 L 368.847 96.235 Z" style="stroke:none;fill:#FF9900;stroke-miterlimit:10;"/><path d=" M 368.847 186.185 L 645.296 186.185 Q 649.499 204.199 649.28 221.185 L 369.723 221.185 Q 370.599 202.14 368.847 186.185 Z " fill="rgb(230,141,9)"/></g><rect x="289.768" y="206.062" width="136.126" height="128.307" transform="matrix(1,0,0,1,0,0)" fill="rgb(181,52,113)"/><path d=" M 300.811 6.957 C 207.799 6.957 132.285 91.301 132.285 195.189 L 300.811 195.189 L 300.811 6.957 Z " fill="rgb(252,66,123)"/><ellipse vector-effect="non-scaling-stroke" cx="300.8109037735258" cy="194.6844020888859" rx="125.54442525334723" ry="140.22454981524453" fill="rgb(181,52,113)"/></g><g><path d=" M 388.098 190.134 C 391.768 184.485 411.137 123.601 342.02 99.057 C 272.902 74.514 295.941 240.996 342.02 214.974 C 388.098 188.952 384.428 195.784 388.098 190.134 Z " fill="rgb(255,255,255)"/><ellipse vector-effect="non-scaling-stroke" cx="347.66040571162074" cy="146.3970869847201" rx="22.29691839322163" ry="22.11760110091018" fill="rgb(0,0,0)"/></g></g><g><path d=" M 850.896 607.685 L 841.096 579.285 L 784.496 579.285 L 774.496 607.685 L 744.696 607.685 L 796.696 468.085 L 828.896 468.085 L 880.696 607.685 L 850.896 607.685 L 850.896 607.685 Z  M 791.896 557.885 L 833.496 557.885 L 812.696 498.285 L 791.896 557.885 L 791.896 557.885 Z  M 962.296 555.285 L 939.096 555.285 L 939.096 607.685 L 910.896 607.685 L 910.896 466.485 L 962.296 466.485 L 962.296 466.485 Q 987.296 466.485 999.996 478.485 L 999.996 478.485 L 999.996 478.485 Q 1012.696 490.485 1012.696 511.085 L 1012.696 511.085 L 1012.696 511.085 Q 1012.696 531.285 999.596 543.285 L 999.596 543.285 L 999.596 543.285 Q 986.496 555.285 962.296 555.285 L 962.296 555.285 L 962.296 555.285 Z  M 959.296 532.685 L 959.296 532.685 Q 984.096 532.685 984.096 511.085 L 984.096 511.085 L 984.096 511.085 Q 984.096 500.485 978.296 494.885 L 978.296 494.885 L 978.296 494.885 Q 972.496 489.285 959.296 489.285 L 959.296 489.285 L 939.096 489.285 L 939.096 532.685 L 959.296 532.685 L 959.296 532.685 Z  M 1097.496 555.285 L 1074.296 555.285 L 1074.296 607.685 L 1046.096 607.685 L 1046.096 466.485 L 1097.496 466.485 L 1097.496 466.485 Q 1122.496 466.485 1135.196 478.485 L 1135.196 478.485 L 1135.196 478.485 Q 1147.896 490.485 1147.896 511.085 L 1147.896 511.085 L 1147.896 511.085 Q 1147.896 531.285 1134.796 543.285 L 1134.796 543.285 L 1134.796 543.285 Q 1121.696 555.285 1097.496 555.285 L 1097.496 555.285 L 1097.496 555.285 Z  M 1094.496 532.685 L 1094.496 532.685 Q 1119.296 532.685 1119.296 511.085 L 1119.296 511.085 L 1119.296 511.085 Q 1119.296 500.485 1113.496 494.885 L 1113.496 494.885 L 1113.496 494.885 Q 1107.696 489.285 1094.496 489.285 L 1094.496 489.285 L 1074.296 489.285 L 1074.296 532.685 L 1094.496 532.685 L 1094.496 532.685 Z  M 1278.296 569.085 L 1278.296 569.085 Q 1278.296 579.885 1272.896 588.985 L 1272.896 588.985 L 1272.896 588.985 Q 1267.496 598.085 1256.896 603.585 L 1256.896 603.585 L 1256.896 603.585 Q 1246.296 609.085 1231.096 609.085 L 1231.096 609.085 L 1231.096 609.085 Q 1216.096 609.085 1204.296 603.985 L 1204.296 603.985 L 1204.296 603.985 Q 1192.496 598.885 1185.396 589.285 L 1185.396 589.285 L 1185.396 589.285 Q 1178.296 579.685 1177.296 566.885 L 1177.296 566.885 L 1207.296 566.885 L 1207.296 566.885 Q 1208.296 575.485 1214.196 581.185 L 1214.196 581.185 L 1214.196 581.185 Q 1220.096 586.885 1229.896 586.885 L 1229.896 586.885 L 1229.896 586.885 Q 1238.696 586.885 1243.396 582.185 L 1243.396 582.185 L 1243.396 582.185 Q 1248.096 577.485 1248.096 570.085 L 1248.096 570.085 L 1248.096 570.085 Q 1248.096 563.485 1244.296 559.185 L 1244.296 559.185 L 1244.296 559.185 Q 1240.496 554.885 1234.696 552.285 L 1234.696 552.285 L 1234.696 552.285 Q 1228.896 549.685 1218.696 546.285 L 1218.696 546.285 L 1218.696 546.285 Q 1205.496 541.885 1197.096 537.585 L 1197.096 537.585 L 1197.096 537.585 Q 1188.696 533.285 1182.796 525.085 L 1182.796 525.085 L 1182.796 525.085 Q 1176.896 516.885 1176.896 503.685 L 1176.896 503.685 L 1176.896 503.685 Q 1176.896 485.485 1189.996 474.985 L 1189.996 474.985 L 1189.996 474.985 Q 1203.096 464.485 1224.696 464.485 L 1224.696 464.485 L 1224.696 464.485 Q 1247.096 464.485 1260.396 475.285 L 1260.396 475.285 L 1260.396 475.285 Q 1273.696 486.085 1275.496 504.085 L 1275.496 504.085 L 1245.096 504.085 L 1245.096 504.085 Q 1243.896 496.485 1238.696 491.585 L 1238.696 491.585 L 1238.696 491.585 Q 1233.496 486.685 1224.496 486.685 L 1224.496 486.685 L 1224.496 486.685 Q 1216.696 486.685 1211.896 490.785 L 1211.896 490.785 L 1211.896 490.785 Q 1207.096 494.885 1207.096 502.685 L 1207.096 502.685 L 1207.096 502.685 Q 1207.096 508.885 1210.796 512.985 L 1210.796 512.985 L 1210.796 512.985 Q 1214.496 517.085 1220.196 519.685 L 1220.196 519.685 L 1220.196 519.685 Q 1225.896 522.285 1235.696 525.485 L 1235.696 525.485 L 1235.696 525.485 Q 1249.296 530.285 1257.796 534.485 L 1257.796 534.485 L 1257.796 534.485 Q 1266.296 538.685 1272.296 547.085 L 1272.296 547.085 L 1272.296 547.085 Q 1278.296 555.485 1278.296 569.085 L 1278.296 569.085 L 1278.296 569.085 Z " fill="rgb(181,52,113)"/><path d=" M 745.096 210.485 L 851.096 210.485 L 851.096 232.885 L 812.096 232.885 L 812.096 351.685 L 783.896 351.685 L 783.896 232.885 L 745.096 232.885 L 745.096 210.485 L 745.096 210.485 Z  M 942.896 208.485 L 942.896 208.485 Q 962.696 208.485 978.796 217.685 L 978.796 217.685 L 978.796 217.685 Q 994.896 226.885 1004.196 243.385 L 1004.196 243.385 L 1004.196 243.385 Q 1013.496 259.885 1013.496 280.685 L 1013.496 280.685 L 1013.496 280.685 Q 1013.496 301.485 1004.196 318.085 L 1004.196 318.085 L 1004.196 318.085 Q 994.896 334.685 978.796 343.885 L 978.796 343.885 L 978.796 343.885 Q 962.696 353.085 942.896 353.085 L 942.896 353.085 L 942.896 353.085 Q 923.096 353.085 906.996 343.885 L 906.996 343.885 L 906.996 343.885 Q 890.896 334.685 881.596 318.085 L 881.596 318.085 L 881.596 318.085 Q 872.296 301.485 872.296 280.685 L 872.296 280.685 L 872.296 280.685 Q 872.296 259.885 881.596 243.385 L 881.596 243.385 L 881.596 243.385 Q 890.896 226.885 906.996 217.685 L 906.996 217.685 L 906.996 217.685 Q 923.096 208.485 942.896 208.485 L 942.896 208.485 L 942.896 208.485 Z  M 942.896 234.485 L 942.896 234.485 Q 930.496 234.485 921.096 240.085 L 921.096 240.085 L 921.096 240.085 Q 911.696 245.685 906.396 256.185 L 906.396 256.185 L 906.396 256.185 Q 901.096 266.685 901.096 280.685 L 901.096 280.685 L 901.096 280.685 Q 901.096 294.685 906.396 305.185 L 906.396 305.185 L 906.396 305.185 Q 911.696 315.685 921.096 321.285 L 921.096 321.285 L 921.096 321.285 Q 930.496 326.885 942.896 326.885 L 942.896 326.885 L 942.896 326.885 Q 955.296 326.885 964.696 321.285 L 964.696 321.285 L 964.696 321.285 Q 974.096 315.685 979.396 305.185 L 979.396 305.185 L 979.396 305.185 Q 984.696 294.685 984.696 280.685 L 984.696 280.685 L 984.696 280.685 Q 984.696 266.685 979.396 256.185 L 979.396 256.185 L 979.396 256.185 Q 974.096 245.685 964.696 240.085 L 964.696 240.085 L 964.696 240.085 Q 955.296 234.485 942.896 234.485 L 942.896 234.485 L 942.896 234.485 Z  M 1043.896 210.485 L 1071.896 210.485 L 1071.896 293.285 L 1071.896 293.285 Q 1071.896 309.885 1079.196 318.185 L 1079.196 318.185 L 1079.196 318.185 Q 1086.496 326.485 1100.296 326.485 L 1100.296 326.485 L 1100.296 326.485 Q 1113.896 326.485 1121.196 318.185 L 1121.196 318.185 L 1121.196 318.185 Q 1128.496 309.885 1128.496 293.285 L 1128.496 293.285 L 1128.496 210.485 L 1156.496 210.485 L 1156.496 293.285 L 1156.496 293.285 Q 1156.496 312.885 1149.196 326.385 L 1149.196 326.385 L 1149.196 326.385 Q 1141.896 339.885 1128.996 346.485 L 1128.996 346.485 L 1128.996 346.485 Q 1116.096 353.085 1099.696 353.085 L 1099.696 353.085 L 1099.696 353.085 Q 1074.296 353.085 1059.096 337.885 L 1059.096 337.885 L 1059.096 337.885 Q 1043.896 322.685 1043.896 293.285 L 1043.896 293.285 L 1043.896 210.485 L 1043.896 210.485 Z  M 1255.096 209.085 L 1255.096 209.085 Q 1281.496 209.085 1298.896 222.685 L 1298.896 222.685 L 1298.896 222.685 Q 1316.296 236.285 1321.896 259.685 L 1321.896 259.685 L 1292.296 259.685 L 1292.296 259.685 Q 1287.696 248.285 1277.996 241.685 L 1277.996 241.685 L 1277.996 241.685 Q 1268.296 235.085 1254.696 235.085 L 1254.696 235.085 L 1254.696 235.085 Q 1243.496 235.085 1234.496 240.685 L 1234.496 240.685 L 1234.496 240.685 Q 1225.496 246.285 1220.496 256.685 L 1220.496 256.685 L 1220.496 256.685 Q 1215.496 267.085 1215.496 281.085 L 1215.496 281.085 L 1215.496 281.085 Q 1215.496 294.885 1220.496 305.285 L 1220.496 305.285 L 1220.496 305.285 Q 1225.496 315.685 1234.496 321.285 L 1234.496 321.285 L 1234.496 321.285 Q 1243.496 326.885 1254.696 326.885 L 1254.696 326.885 L 1254.696 326.885 Q 1268.296 326.885 1277.996 320.285 L 1277.996 320.285 L 1277.996 320.285 Q 1287.696 313.685 1292.296 302.285 L 1292.296 302.285 L 1321.896 302.285 L 1321.896 302.285 Q 1316.296 325.685 1298.896 339.285 L 1298.896 339.285 L 1298.896 339.285 Q 1281.496 352.885 1255.096 352.885 L 1255.096 352.885 L 1255.096 352.885 Q 1234.896 352.885 1219.396 343.785 L 1219.396 343.785 L 1219.396 343.785 Q 1203.896 334.685 1195.396 318.285 L 1195.396 318.285 L 1195.396 318.285 Q 1186.896 301.885 1186.896 281.085 L 1186.896 281.085 L 1186.896 281.085 Q 1186.896 260.085 1195.396 243.685 L 1195.396 243.685 L 1195.396 243.685 Q 1203.896 227.285 1219.296 218.185 L 1219.296 218.185 L 1219.296 218.185 Q 1234.696 209.085 1255.096 209.085 L 1255.096 209.085 L 1255.096 209.085 Z  M 1448.896 351.685 L 1439.096 323.285 L 1382.496 323.285 L 1372.496 351.685 L 1342.696 351.685 L 1394.696 212.085 L 1426.896 212.085 L 1478.696 351.685 L 1448.896 351.685 L 1448.896 351.685 Z  M 1389.896 301.885 L 1431.496 301.885 L 1410.696 242.285 L 1389.896 301.885 L 1389.896 301.885 Z  M 1623.496 210.485 L 1623.496 351.685 L 1595.296 351.685 L 1532.096 255.685 L 1532.096 351.685 L 1503.896 351.685 L 1503.896 210.485 L 1532.096 210.485 L 1595.296 307.285 L 1595.296 210.485 L 1623.496 210.485 L 1623.496 210.485 Z " fill="rgb(252,66,123)"/></g></g></svg>